<svg xmlns="http://www.w3.org/2000/svg" xmlns:xlink="http://www.w3.org/1999/xlink" viewBox="0 0 100 120" xmlns:v="https://vecta.io/nano"><path d="M97.5 120h-95c-1.4 0-2.5-1.3-2.5-3V3c0-1.7 1.2-3 2.5-3h95c1.4 0 2.5 1.3 2.5 3v114c0 1.7-1.1 3-2.5 3zM2.5 1.2C1.7 1.2 1 2 1 3v114c0 1 .7 1.8 1.5 1.8h95c.8 0 1.5-.8 1.5-1.8V3c0-1-.7-1.8-1.5-1.8h-95z" fill="#b8bcbf"/><g enable-background="new" fill="#6b7d87"><path d="M45.8 92.1c-.1.2-.4.3-.7.3v.3c0 .1 0 .1-.1.1h0c-.1 0-.1 0-.1-.1v-.2c-.2 0-.3 0-.5-.1s-.3-.1-.3-.2-.1-.1-.1-.2 0-.2.1-.3c0-.1.1-.2.2-.2h.1c.1 0 .1 0 .1.1h.1c.1.1.3.1.4.1V91s-.1 0-.1-.1c-.2-.1-.3-.2-.4-.3l-.3-.3c-.1-.1-.1-.3-.1-.5 0-.3.1-.5.2-.7s.4-.3.7-.3v-.2c0-.1 0-.1.1-.1h0c.1 0 .1 0 .1.1v.2c.1 0 .2 0 .3.1.1 0 .2.1.2.1.1 0 .1.1.1.2s0 .2-.1.3l-.1.1h-.1c-.1 0-.2-.1-.3-.1v.8h.1c.2.1.3.2.4.3l.3.3c.1.1.1.3.1.5-.1.3-.2.5-.3.7zm-1-2v-.6c-.1 0-.1.1-.1.1v.1c0 .3 0 .4.1.4zm.5 1.4c0-.1 0-.2-.1-.3v.5c0 0 .1-.1.1-.2z"/><path d="M46.3 92.4v-.2-.1-.2l.1-.1h.6v-2.2l-.5.1c-.1 0-.1 0-.1-.1v-.3c0-.1 0-.1.1-.1l1.1-.2h.1l.1.1v2.8h.5c.1 0 .1 0 .1.1v.2.1.2l-.1.1h-1.7c-.2-.2-.3-.2-.3-.2zm2.5 0c0-.1-.1-.1-.1-.2V92v-.1h.1c.2-.1.4-.2.6-.4s.3-.4.3-.6c-.1.1-.3.1-.4.1s-.2 0-.4-.1l-.3-.3c-.1-.2-.1-.4-.1-.6 0-.3 0-.5.1-.6a.78.78 0 0 1 .4-.4c.2-.1.3-.1.5-.1a.9.9 0 0 1 .5.1.78.78 0 0 1 .4.4c.1.2.1.4.1.7 0 .6-.1 1-.3 1.4a1.54 1.54 0 0 1-.7.7c-.3.1-.4.2-.5.2-.1.1-.1 0-.2 0zm1-2v-.3c0-.2 0-.4-.1-.5s-.1-.2-.2-.2-.2 0-.2.1-.1.2-.1.4 0 .3.1.4.2.1.3.1c0 .1.1.1.2 0zm1 1.9v-.5c0-.1.1-.2.3-.2h.2c.2 0 .3.1.3.2v.5c0 .1-.1.2-.3.2h-.2c-.2-.1-.3-.1-.3-.2z"/><use xlink:href="#B"/><use xlink:href="#B" x="2.3"/></g><g enable-background="new" fill="#4c606b"><path d="M29.8 84.2v-3.9c0-.1.1-.2.3-.2h.2c.2 0 .3.1.3.2v1.6h1.2v-1.6c0-.1.1-.2.3-.2h.2c.2 0 .3.1.3.2v3.9c0 .1-.1.2-.3.2h-.2c-.2 0-.3-.1-.3-.2v-1.6h-1.2v1.6c0 .1-.1.2-.3.2h-.2c-.2 0-.3-.1-.3-.2zm3.7-.1c-.1-.2-.2-.4-.2-.7s.1-.6.4-.8c.2-.2.6-.3 1.1-.3v-.2c0-.3-.1-.4-.4-.4h-.3c-.1 0-.2.1-.3.1h-.1c-.1 0-.1-.1-.2-.2s-.1-.2-.1-.3 0-.1.1-.2.2-.1.4-.1.3-.1.5-.1c.4 0 .7.1.9.3s.3.4.3.7v1.2.6.2c0 .1-.1.1-.2.1H35c-.1 0-.1 0-.1-.1s-.1-.1-.1-.2l-.3.3c-.1.1-.3.1-.4.1-.3.3-.5.2-.6 0zm1.1-.4c.1 0 .1-.1.2-.2v-.7c-.5 0-.8.2-.8.6 0 .1 0 .2.1.3s.1.1.3.1c0 0 .1 0 .2-.1zm1.8.5c-.1-.1-.2-.3-.2-.6V80c0-.1.1-.2.3-.2h.1c.2 0 .3.1.3.2v3.5.2l.1.1h.1.1s.1 0 .1.1v.2c0 .1-.1.1-.2.2-.1 0-.2.1-.4.1.1 0-.1-.1-.3-.2zm1.6 0v-2.4h-.1c-.1 0-.1 0-.1-.1v-.2-.1-.2l.1-.1h.1v-.5c0-.3.1-.5.2-.7.1-.1.3-.2.6-.2.1 0 .2 0 .4.1.1 0 .2.1.2.2v.2c0 .1-.1.2-.1.2h-.1-.1c-.1 0-.1 0-.2.1 0 0-.1.1-.1.2v.5h.2c.1 0 .1 0 .1.1v.2.1.2l-.1.1h-.3v2.4c0 .1-.1.2-.3.2h-.1c-.2-.1-.3-.2-.3-.3zm2.7.1c-.2-.1-.3-.1-.4-.2 0 0 0-.1-.1-.1v-.1c0-.1 0-.2.1-.3 0-.1.1-.2.2-.2h.1c.1 0 .1 0 .1.1.2.1.4.2.6.2s.3 0 .4-.1.2-.2.2-.4 0-.3-.1-.4a1.38 1.38 0 0 0-.4-.3c-.2-.1-.4-.2-.5-.3a1.38 1.38 0 0 1-.3-.4c-.1-.2-.1-.3-.1-.5s.1-.5.2-.6c.1-.2.3-.3.4-.4.2-.1.4-.1.6-.1.1 0 .3 0 .4.1.1 0 .3.1.3.1.1 0 .1.1.1.2s0 .2-.1.3c0 .1-.1.2-.1.2h-.1c-.2-.1-.3-.1-.4-.1-.2 0-.3 0-.4.1s-.1.2-.1.3 0 .2.1.3l.2.2c.1 0 .2.1.3.2.1 0 .1.1.1.1.3.2.5.3.6.5s.2.4.2.7c0 .2 0 .4-.1.6a.78.78 0 0 1-.4.4c-.2.1-.4.2-.7.2-.5-.2-.7-.2-.9-.3zm2.5-.1c-.1-.2-.2-.4-.2-.7V80c0-.1.1-.2.3-.2h.1c.2 0 .3.1.3.2v3.5.2l.1.1h.1.1s.1 0 .1.1v.2c0 .1-.1.1-.2.2-.1 0-.2.1-.4.1 0 0-.1-.1-.3-.2zm1.6-.2c-.2-.3-.3-.7-.3-1.2 0-1.1.4-1.6 1.2-1.6.7 0 1.1.5 1.1 1.6 0 0 0 .1-.1.2s-.1.1-.2.1h-1.3c0 .2.1.4.2.5s.2.2.4.2h.3c.1 0 .2-.1.2-.1.1 0 .1-.1.1-.1.1 0 .1.1.2.2s.1.2.1.2c0 .1 0 .1-.1.2s-.2.1-.4.1-.3.1-.4.1c-.5 0-.8-.1-1-.4zm1.3-1.4c0-.3 0-.5-.1-.6s-.2-.2-.3-.2-.2.1-.3.2-.1.3-.1.7h.8zm1.4 1.4c-.2-.3-.3-.7-.3-1.2 0-1.1.4-1.6 1.2-1.6.7 0 1.1.5 1.1 1.6 0 0 0 .1-.1.2s-.1.1-.2.1H48c0 .2.1.4.2.5s.2.2.4.2h.3c.1 0 .2-.1.2-.1.1 0 .1-.1.1-.1.1 0 .1.1.2.2s.1.2.1.2c0 .1 0 .1-.1.2s-.2.1-.4.1-.3.1-.4.1c-.6 0-.9-.1-1.1-.4zm1.3-1.4c0-.3 0-.5-.1-.6s-.2-.2-.3-.2-.2.1-.3.2-.1.3-.1.7h.8zm1.6 1.6l-.7-2.8v-.1c0-.1.1-.1.3-.1h.2c.2 0 .3 0 .3.1l.3 1.4c0 .2.1.5.1.9h0c0-.3.1-.6.1-.9l.3-1.4c0-.1.1-.1.3-.1h.2c.2 0 .3 0 .3.1v.1l-.7 2.8c0 .1-.1.1-.3.1h-.3c-.3.1-.4 0-.4-.1zm2.2-.2c-.2-.3-.3-.7-.3-1.2 0-1.1.4-1.6 1.2-1.6.7 0 1.1.5 1.1 1.6 0 0 0 .1-.1.2s-.1.1-.2.1H53c0 .2.1.4.2.5s.2.2.4.2h.3c.1 0 .2-.1.2-.1.1 0 .1-.1.1-.1.1 0 .1.1.2.2s.1.2.1.2c0 .1 0 .1-.1.2s-.2.1-.4.1c-.1 0-.3.1-.4.1-.5 0-.8-.1-1-.4zm1.2-1.4c0-.3 0-.5-.1-.6s-.2-.2-.3-.2-.2.1-.3.2-.1.3-.1.6h.8zm2.7 1.6v-3.4h-.7c-.1 0-.1 0-.1-.1v-.2-.2-.2l.1-.1H58c.1 0 .1 0 .1.1v.2.2.2l-.1.1h-.7v3.4c0 .1-.1.2-.3.2h-.2c-.2 0-.3-.1-.3-.2zm1.6-1.2v-.2h0v-.2l.1-.1h1c.1 0 .1 0 .1.1v.2h0v.2l-.1.1h-1c0-.1 0-.1-.1-.1zm2.1 1.3c-.2-.1-.3-.1-.4-.2 0 0 0-.1-.1-.1v-.1c0-.1 0-.2.1-.3 0-.1.1-.2.2-.2h.1c.1 0 .1 0 .1.1.2.1.4.2.6.2s.3 0 .4-.1.2-.2.2-.4 0-.3-.1-.4a1.38 1.38 0 0 0-.4-.3c-.2-.1-.4-.2-.5-.3a1.38 1.38 0 0 1-.3-.4c-.1-.2-.1-.3-.1-.5s.1-.5.2-.6c.1-.2.3-.3.4-.4.2-.1.4-.1.6-.1.1 0 .3 0 .4.1.1 0 .3.1.3.1.1 0 .1.1.1.2s0 .2-.1.3c0 .1-.1.2-.1.2h-.1c-.2-.1-.3-.1-.4-.1-.2 0-.3 0-.4.1s-.1.2-.1.3 0 .2.1.3l.2.2c.1.1.2.1.3.2.1 0 .1.1.1.1.3.2.5.3.6.5s.2.4.2.7c0 .2 0 .4-.1.6a.78.78 0 0 1-.4.4c-.2.1-.4.2-.7.2-.6-.2-.8-.2-.9-.3zm2.3-.1V80c0-.1.1-.2.3-.2h.2c.2 0 .3.1.3.2v1.6l.3-.3c.1-.1.3-.1.4-.1.2 0 .4.1.5.2s.2.4.2.7v2.1c0 .1-.1.2-.3.2h-.1-.2l-.1-.1v-2c0-.3-.1-.4-.3-.4-.1 0-.2 0-.2.1l-.2.2v2.1c0 .1 0 .1-.1.1H63h-.2c-.2 0-.3-.1-.3-.2zm2.9-3.5v-.4c0-.1.1-.2.4-.2s.4.1.4.2v.4c0 .1-.1.2-.4.2s-.4-.1-.4-.2zm0 3.5v-2.8c0-.1.1-.2.3-.2h.1c.2 0 .3.1.3.2v2.8c0 .1-.1.2-.3.2h-.1c-.2 0-.3-.1-.3-.2zm1.5 0v-2-.6-.2c0-.1.1-.1.2-.1h.4c.1 0 .1 0 .1.1s0 .1.1.2v.1c.1-.1.1-.2.2-.3s.2-.1.3-.1.2 0 .2.1c0 0 .1.1.1.2v.3c0 .1-.1.2-.1.2h-.1-.2c-.1 0-.2 0-.2.1-.1.1-.1.1-.1.2v2c0 .1-.1.2-.3.2h-.1c-.3-.2-.5-.3-.5-.4z"/><path d="M69.1 84.2c-.1-.1-.2-.4-.2-.7v-1.7h-.1c-.1 0-.1 0-.1-.1v-.2-.1-.2l.1-.1h.1l.1-.6c0-.1.1-.2.3-.2h.1c.2 0 .3.1.3.2v.6h.3c.1 0 .1 0 .1.1v.2.1.2l-.1.1h-.3v1.7.2l.1.1h.1.1s.1 0 .1.1v.2c0 .1-.1.2-.2.2s-.2.1-.4.1c-.1 0-.2-.1-.4-.2z"/></g><path d="M57.4 104.1H42.5c-2.2 0-4-1.8-4-4h0c0-2.2 1.8-4 4-4h14.9c2.2 0 4 1.8 4 4h0c0 2.2-1.9 4-4 4z" fill="#4c606b"/><g enable-background="new" fill="#eaedef"><path d="M41.8 101.2l.6-2.6c0-.1.1-.1.2-.1h.3c.1 0 .2 0 .2.1l.6 2.5v.1c0 .1-.1.1-.2.1h-.2c-.1 0-.2 0-.2-.1l-.1-.5h-.6l-.1.5c0 .1-.1.1-.2.1H42c-.1 0-.2 0-.2-.1zm1.2-1l-.2-.8v-.3h0v.3l-.2.8h.4zm1.3 1c-.1-.1-.2-.2-.2-.4-.1-.2-.1-.4-.1-.6 0-.3.1-.6.2-.8a.55.55 0 0 1 .5-.3c.1 0 .2 0 .3.1v-.9c0-.1.1-.1.2-.1h.1c.2 0 .2 0 .2.1v2.2.3.2.1s-.1.1-.2.1H45c-.1 0-.1 0-.1-.1 0 0 0-.1-.1-.2 0 .1-.1.2-.2.2-.1.1-.2.1-.3.1.1.1 0 .1 0 0zm.7-.5v-1c-.1 0-.1-.1-.2-.1s-.1 0-.2.1c0 .1-.1.3-.1.5v.5c0 .1.1.1.2.1s.2 0 .3-.1zm1.2.5c-.1-.1-.2-.2-.2-.4-.1-.2-.1-.4-.1-.6 0-.3.1-.6.2-.8a.55.55 0 0 1 .5-.3c.1 0 .2 0 .3.1v-.9c0-.1.1-.1.2-.1h.1c.2 0 .2 0 .2.1v2.2.3.2.1s-.1.1-.2.1h-.3c-.1 0-.1 0-.1-.1 0 0 0-.1-.1-.2 0 .1-.1.2-.2.2-.1.1-.2.1-.3.1.2.1.1.1 0 0zm.7-.5v-1c-.1 0-.1-.1-.2-.1s-.1 0-.2.1c0 .1-.1.3-.1.5v.5c0 .1.1.1.2.1.2 0 .2 0 .3-.1zm1.7.5c-.1-.1-.1-.3-.1-.5v-1h0-.1v-.2-.1-.2h.1 0l.1-.4c0-.1.1-.1.2-.1h.1c.1 0 .2 0 .2.1v.4h.1.1v.2.1.2c0 .1 0 0-.1 0H49v1 .1h.1.1.1s.1 0 .1.1v.2c0 .1 0 .1-.1.2H49c-.2 0-.3 0-.4-.1z"/><path d="M49.7 101c-.1-.2-.2-.5-.2-.8s.1-.6.2-.8.3-.3.6-.3.5.1.6.3.2.5.2.8-.1.6-.2.8-.3.3-.6.3c-.2 0-.4-.1-.6-.3zm.8-.3v-.5-.5c0-.1-.1-.1-.2-.1s-.1 0-.2.1c0 .1-.1.2-.1.5 0 .2 0 .4.1.5 0 .1.1.1.2.1s.2 0 .2-.1zm1.7.3c-.2-.2-.3-.6-.3-1.1s.1-.8.3-1.1c.2-.2.5-.4.8-.4h.3c.1 0 .1.1.1.2s0 .2-.1.3c0 .1-.1.1-.1.1h-.3c-.2 0-.3.1-.4.2s-.1.4-.1.7 0 .5.1.7c.1.1.2.2.4.2h.1.1c.1 0 .1 0 .1.1v.3.1l-.1.1h-.2-.2c0-.1-.3-.2-.5-.4zm1.8.1c-.1-.1-.1-.3-.1-.5 0-.5.3-.7.9-.7v-.1c0-.1 0-.1-.1-.2 0 0-.1-.1-.2-.1h-.2s-.1 0-.2.1H54s-.1 0-.1-.1l-.1-.1v-.1s0-.1.1-.1.1-.1.2-.1h.3c.3 0 .5.1.6.2s.2.3.2.5v.7.3.2.1s-.1.1-.2.1h-.3-.1s0-.1-.1-.2c0 .1-.1.1-.2.2s-.2.1-.3.1c.2 0 .1 0 0-.2zm.7-.3l.1-.6c-.3 0-.4.1-.4.4 0 .1 0 .1.1.2l.1.1.1-.1zm1.1.4v-1.3-.3-.2-.1s.1-.1.2-.1h.3s.1 0 .1.1v.1.1c0-.1.1-.2.1-.2 0-.1.1-.1.2-.1h.1v.2.2c0 .1 0 .1-.1.1h-.1-.1c-.1 0-.1 0-.1.1l-.1.1v1.3c0 .1-.1.1-.2.1H56c-.1 0-.2-.1-.2-.1zm1.5 0c-.1-.1-.1-.3-.1-.5v-1h0-.1v-.2-.1-.2h.1 0l.1-.4c0-.1.1-.1.2-.1h.1c.1 0 .2 0 .2.1v.4h.1.1v.2.1.2c0 .1 0 0-.1 0h-.1v1 .1h.1.1.1s.1 0 .1.1v.2c0 .1 0 .1-.1.2h-.3c-.3 0-.5 0-.5-.1z"/></g><path d="M45.1 26.1C36 30.3 36.2 31 29.4 38.4l6.4 7.2 2.2-2v19.9c11.2.3 12.7.3 23.9 0V43.7l2.2 2 6.4-7.2c-6.7-7.4-6.5-8.1-15.7-12.3-2.9 2-6.6 2-9.7-.1h0z" fill="#9aa7af"/><path d="M76.5 73.9h-53a.47.47 0 0 1-.5-.5v-57a.47.47 0 0 1 .5-.5h53a.47.47 0 0 1 .5.5v57a.47.47 0 0 1-.5.5z" fill="none" stroke="#b8bcbf" stroke-width=".5" stroke-miterlimit="10"/><defs ><path id="B" d="M52 92c-.2-.3-.3-.8-.3-1.3 0-.6.1-1 .3-1.3s.4-.5.8-.5c.3 0 .6.2.8.5s.3.8.3 1.3-.1 1-.3 1.3-.4.5-.8.5-.6-.2-.8-.5zm.9-.2c0-.1.1-.2.1-.4v-.8-.8c0-.2 0-.3-.1-.4 0-.1-.1-.1-.2-.1s-.1 0-.1.1-.1.2-.1.4v.8.8c0 .2 0 .3.1.4 0 .1.1.1.1.1s.2 0 .2-.1z"/></defs></svg>