<svg xmlns="http://www.w3.org/2000/svg" xmlns:xlink="http://www.w3.org/1999/xlink" viewBox="0 0 100 120" xmlns:v="https://vecta.io/nano"><style><![CDATA[.G{enable-background:new}]]></style><path d="M41 24.2c-16.6 7.7-16.3 9-28.7 22.5L24 60l4.1-3.6v36.5c20.5.5 23.3.5 43.9 0V56.4l4 3.6 11.7-13.3C75.4 33.2 75.8 31.9 59 24.2c-5.6 3.8-12.3 3.8-18 0h0z" fill="#9aa7af"/><path d="M97.5 120h-95c-1.4 0-2.5-1.3-2.5-3V3c0-1.7 1.2-3 2.5-3h95c1.4 0 2.5 1.3 2.5 3v114c0 1.7-1.1 3-2.5 3zM2.5 1.2C1.7 1.2 1 2 1 3v114c0 1 .7 1.8 1.5 1.8h95c.8 0 1.5-.8 1.5-1.8V3c0-1-.7-1.8-1.5-1.8h-95z" fill="#b8bcbf"/><path d="M97 118.8H3c-1.1 0-2-1.1-2-2.4V3.5c0-1.3.9-2.4 2-2.4h94c1.1 0 2 1.1 2 2.4v112.9c0 1.4-.9 2.4-2 2.4z" opacity=".66" class="G"/><path d="M44.4 60.7c-.2.3-.5.4-.9.5v.3c0 .1-.1.2-.2.2h0c-.1 0-.2-.1-.2-.2v-.3c-.2 0-.4 0-.6-.1s-.3-.2-.4-.3-.1-.2-.1-.3 0-.2.1-.4.1-.2.2-.2h.1s.1 0 .1.1c0 0 .1 0 .1.1a.9.9 0 0 0 .5.1v-1c-.1 0-.1 0-.1-.1-.2-.1-.4-.3-.6-.4-.1-.1-.3-.3-.4-.5s-.2-.4-.2-.7c0-.4.1-.7.3-.9s.5-.3.9-.4V56c0-.1.1-.2.2-.2h0c.1 0 .2.1.2.2v.2c.2 0 .3 0 .4.1s.2.1.3.1c.1.1.1.1.1.2s0 .2-.1.4c-.1.1-.1.2-.2.2 0 0-.1 0-.2-.1-.2-.1-.3-.1-.4-.1v1l.1.1c.2.1.4.2.5.3s.3.2.4.4.1.4.1.6c.3.7.2 1 0 1.3zm-1.2-2.6v-.7c-.1 0-.1.1-.2.1v.2c-.1.1 0 .2.2.4zm.5 1.7c0-.1-.1-.2-.2-.3v.7c.2-.1.2-.2.2-.4zm1.4 1.2v-.3-.1-.3c0-.1.1-.1.2-.1h.7v-3l-.7.1c-.1 0-.1-.1-.2-.2v-.4c0-.1.1-.2.2-.2l1.5-.3h.2c.1 0 .1.1.1.1V60h.6c.1 0 .1 0 .2.1v.3.1.3c0 .1-.1.1-.2.1h-2.3c-.2.2-.3.2-.3.1zm3.4 0c0-.1-.1-.1-.1-.2v-.2-.1h.1c.3-.1.6-.3.8-.5s.4-.5.4-.8c-.2.1-.3.2-.5.2s-.3 0-.5-.1-.3-.2-.4-.5-.3-.6-.3-.9.1-.6.2-.8.3-.4.5-.5.4-.2.7-.2c.2 0 .5.1.7.2s.4.3.5.6.2.6.2 1c0 .8-.2 1.4-.5 1.8s-.6.8-1 .9c-.3.2-.6.3-.7.3 0-.1-.1-.1-.1-.2zm1.2-2.6V58c0-.3 0-.5-.1-.7-.1-.1-.2-.2-.3-.2s-.2.1-.3.2-.1.3-.1.5 0 .4.1.5.2.2.4.2c.1 0 .2 0 .3-.1zm1.3 2.5v-.6c0-.1.1-.2.4-.2h.2c.3 0 .4.1.4.2v.6c0 .1-.1.2-.4.2h-.2c-.2 0-.4-.1-.4-.2zm1.6-.4c-.2-.4-.3-1-.3-1.8s.1-1.4.3-1.8a1.1 1.1 0 0 1 1-.6 1.1 1.1 0 0 1 1 .6c.2.4.3 1 .3 1.8s-.1 1.3-.3 1.8a1.1 1.1 0 0 1-1 .6c-.4 0-.7-.2-1-.6zm1.3-.3c0-.1.1-.2.1-.5v-1-1c0-.2-.1-.4-.1-.5s-.1-.1-.2-.1-.2 0-.2.1-.1.2-.1.5v1 1c0 .2.1.4.1.5s.1.1.2.1.1 0 .2-.1zm1.8.3c-.2-.4-.3-1-.3-1.8s.1-1.4.3-1.8a1.1 1.1 0 0 1 1-.6 1.1 1.1 0 0 1 1 .6c.2.4.3 1 .3 1.8s-.1 1.3-.3 1.8a1.1 1.1 0 0 1-1 .6 1.1 1.1 0 0 1-1-.6zm1.2-.3c0-.1.1-.2.1-.5v-1-1c0-.2-.1-.4-.1-.5s-.1-.1-.2-.1-.2 0-.2.1-.1.2-.1.5v1 1c0 .2.1.4.1.5s.1.1.2.1.2 0 .2-.1z" fill="#fff" class="G"/><g fill="#fff" class="G"><path d="M23.4 50.2V45c0-.2.1-.2.4-.2h.3c.3 0 .4.1.4.2v2.1h1.6V45c0-.2.1-.2.4-.2h.3c.3 0 .4.1.4.2v5.1c0 .2-.1.2-.4.2h-.3c-.3 0-.4-.1-.4-.2V48h-1.6v2.2c0 .2-.1.2-.4.2h-.3c-.3 0-.4-.1-.4-.2zm4.9-.1c-.2-.2-.3-.5-.3-.9 0-.5.2-.8.5-1.1s.8-.4 1.5-.4v-.2c0-.4-.2-.5-.6-.5-.1 0-.3 0-.4.1-.1 0-.2.1-.3.1s-.1.1-.2.1-.1-.1-.2-.2-.1-.3-.1-.3c0-.1.1-.2.2-.2.1-.1.3-.1.5-.2s.4-.1.6-.1c.5 0 .9.1 1.1.3a1.53 1.53 0 0 1 .4 1V49v.8.3c0 .1-.1.1-.3.2-.2 0-.3.1-.5.1-.1 0-.1 0-.2-.1 0-.1-.1-.2-.1-.3-.1.1-.2.2-.4.3a.9.9 0 0 1-.5.1 1.08 1.08 0 0 1-.7-.3zm1.4-.5c.1-.1.2-.1.2-.2v-1c-.7 0-1 .3-1 .8 0 .2 0 .3.1.4s.2.1.3.1c.2-.1.3-.1.4-.1zm2.5.6c-.1-.2-.2-.5-.2-.9v-4.7c0-.1.1-.2.4-.2h.2c.3 0 .4.1.4.2v4.7c0 .1 0 .2.1.3s.1.1.2.1h.1.1c.1 0 .1.1.1.2s.1.2.1.3-.1.2-.2.2c-.1.1-.3.1-.5.1-.4-.1-.6-.2-.8-.3zm2 0V47h-.1c-.1 0-.1 0-.2-.1s0-.1 0-.3v-.1-.3c0-.1.1-.1.2-.1h.1v-.7c0-.4.1-.7.3-.9s.4-.3.8-.3a.9.9 0 0 1 .5.1c.2.1.2.1.2.3 0 .1 0 .2-.1.3 0 .1-.1.2-.2.2h-.1-.1c-.1 0-.2 0-.2.1s-.1.2-.1.3v.7h.4c.1 0 .1 0 .2.1v.3.1.3c0 .1-.1.1-.2.1h-.4v3.1c0 .2-.1.2-.4.2h-.2c-.2 0-.4-.1-.4-.2zm3.7.1l-.6-.3-.1-.1v-.1c0-.1 0-.3.1-.4s.1-.2.2-.2c0 0 .1 0 .2.1l.1.1c.2.1.5.2.7.2s.4-.1.5-.2.2-.3.2-.5-.1-.4-.2-.5-.3-.3-.6-.4-.5-.3-.7-.4-.3-.3-.4-.5-.1-.4-.1-.7.1-.6.2-.8.3-.4.6-.5c.2-.1.5-.2.9-.2.2 0 .4 0 .6.1s.3.1.5.2c.1.1.1.1.1.2s0 .2-.1.4c-.1.1-.1.2-.2.2 0 0-.1 0-.2-.1-.2-.1-.4-.1-.6-.1s-.4.1-.5.2a.76.76 0 0 0-.2.4c0 .1 0 .3.1.4s.1.2.2.2c.1.1.2.1.4.2.1 0 .1.1.2.1.4.2.7.4.8.7.2.2.3.6.3 1 0 .3-.1.6-.2.8s-.3.4-.6.6-.6.2-.9.2c-.2-.2-.5-.2-.7-.3zm3.3-.1c-.2-.2-.2-.5-.2-.9v-4.7c0-.1.1-.2.4-.2h.2c.3 0 .4.1.4.2v4.7c0 .1 0 .2.1.3s.1.1.2.1h.1.1c.1 0 .1.1.1.2s.1.2.1.3-.1.2-.2.2c-.1.1-.3.1-.5.1-.4-.1-.6-.2-.8-.3zm2.1-.3c-.3-.4-.4-.9-.4-1.6 0-1.4.5-2.2 1.6-2.2 1 0 1.4.7 1.4 2.1 0 .1 0 .1-.1.3l-.2.2h-1.7c0 .3.1.6.2.7s.3.2.5.2c.1 0 .3 0 .4-.1.1 0 .2-.1.3-.1.1-.1.1-.1.2-.1s.1.1.2.2.1.2.1.3-.1.2-.2.3-.3.1-.5.2c-.2 0-.4.1-.5.1-.6 0-1-.2-1.3-.5zM45 48c0-.4 0-.7-.1-.9s-.2-.3-.4-.3-.3.1-.4.3-.2.5-.2.9H45zm1.9 1.9c-.3-.4-.4-.9-.4-1.6 0-1.4.5-2.2 1.6-2.2 1 0 1.4.7 1.4 2.1 0 .1 0 .1-.1.3l-.2.2h-1.7c0 .3.1.6.2.7s.3.2.5.2c.1 0 .3 0 .4-.1.1 0 .2-.1.3-.1.1-.1.1-.1.2-.1s.1.1.2.2.1.2.1.3-.1.2-.2.3-.3.1-.5.2c-.2 0-.4.1-.5.1-.6 0-1.1-.2-1.3-.5zm1.7-1.9c0-.4 0-.7-.1-.9s-.2-.3-.4-.3-.3.1-.4.3-.2.5-.2.9h1.1zm2.1 2.2l-1-3.7v-.1c0-.1.1-.2.4-.2h.3c.2 0 .4 0 .4.2l.4 1.9c.1.3.1.7.2 1.2h0c0-.4.1-.8.2-1.2l.3-1.9c0-.1.1-.2.4-.2h.2c.2 0 .4.1.4.2v.1l-1 3.7c0 .1-.1.2-.4.2h-.4c-.2 0-.4-.1-.4-.2zm2.9-.3c-.3-.4-.4-.9-.4-1.6 0-1.4.5-2.2 1.6-2.2 1 0 1.4.7 1.4 2.1 0 .1 0 .1-.1.3l-.2.2h-1.7c0 .3.1.6.2.7s.3.2.5.2c.1 0 .3 0 .4-.1.1 0 .2-.1.3-.1.1-.1.1-.1.2-.1s.1.1.2.2.1.2.1.3-.1.2-.2.3-.3.1-.5.2-.4.1-.5.1c-.6 0-1-.2-1.3-.5zm1.7-1.9c0-.4 0-.7-.1-.9s-.2-.3-.4-.3-.3.1-.4.3-.2.5-.2.9h1.1zm3.5 2.2v-4.5h-1c-.1 0-.1 0-.2-.1v-.3-.2-.3c0-.1.1-.1.2-.1h3c.1 0 .1 0 .2.1 0 .1.1.1.1.3v.2c0 .1 0 .2-.1.3 0 .1-.1.1-.2.1h-1v4.5c0 .2-.1.2-.4.2h-.3c-.1 0-.3-.1-.3-.2zm2.2-1.7v-.3-.1-.3c0-.1.1-.1.2-.1h1.3c.1 0 .1 0 .2.1s0 .1 0 .3v.1.3c0 .1-.1.1-.2.1h-1.3c-.1 0-.2 0-.2-.1zm2.7 1.8l-.6-.3-.1-.1v-.1c0-.1 0-.3.1-.4s.1-.2.2-.2c0 0 .1 0 .2.1.1 0 .1.1.1.1.2.1.5.2.7.2s.4-.1.5-.2.2-.3.2-.5-.1-.4-.2-.5-.3-.3-.6-.4-.5-.3-.7-.4-.3-.3-.4-.5-.1-.4-.1-.7.1-.6.2-.8.3-.4.6-.5c.2-.1.5-.2.9-.2.2 0 .4 0 .6.1s.3.1.5.2c.1.1.1.1.1.2s0 .2-.1.4c-.1.1-.1.2-.2.2 0 0-.1 0-.2-.1-.2-.1-.4-.1-.6-.1s-.4.1-.5.2a.76.76 0 0 0-.2.4c0 .1 0 .3.1.4s.1.2.2.2c.1.1.2.1.4.2.1 0 .1.1.2.1.4.2.7.4.8.7.2.2.3.6.3 1 0 .3-.1.6-.2.8s-.3.4-.6.6c-.3.1-.6.2-.9.2-.2-.2-.5-.2-.7-.3zm3-.1v-5.6c0-.1.1-.2.4-.2h.2c.3 0 .4.1.4.2v2.1c.1-.2.3-.3.4-.4.2-.1.4-.1.6-.1.3 0 .5.1.7.3s.2.5.2.9v2.8c0 .2-.1.2-.4.2H69c-.1 0-.2 0-.3-.1-.1 0-.1-.1-.1-.2v-2.6c0-.3-.1-.5-.4-.5-.1 0-.2 0-.3.1l-.2.2v2.8c0 .1 0 .1-.1.2s-.2.1-.3.1h-.2c-.2 0-.4-.1-.4-.2zm3.9-4.7v-.6c0-.1.2-.2.5-.2s.5.1.5.2v.6c0 .2-.2.2-.5.2s-.5 0-.5-.2zm0 4.7v-3.7c0-.2.1-.2.4-.2h.2c.3 0 .4.1.4.2v3.7c0 .2-.1.2-.4.2H71c-.2 0-.4-.1-.4-.2zm2.1 0v-2.6-.8-.3c0-.1.1-.1.3-.2s.3-.1.5-.1c.1 0 .1 0 .2.1s.1.2.1.2v.2c.1-.2.2-.3.3-.4a.76.76 0 0 1 .4-.2c.1 0 .2 0 .3.1s.1.2.1.3 0 .2-.1.4c0 .2-.1.2-.1.2h-.2-.2c-.1 0-.2 0-.3.1s-.2.2-.2.3v2.6c0 .2-.1.2-.4.2h-.2c-.4.1-.5 0-.5-.1z"/><path d="M75.6 50.1c-.2-.2-.3-.5-.3-.9V47h-.1c-.1 0-.1 0-.2-.1 0-.1-.1-.1-.1-.3v-.1c0-.1 0-.2.1-.3 0-.1.1-.1.2-.1h.1l.1-.8c0-.2.1-.2.4-.2h.2c.2 0 .3.1.3.2v.8h.4c.1 0 .1 0 .2.1 0 .1.1.1.1.3v.1c0 .1 0 .2-.1.3 0 .1-.1.1-.2.1h-.4v2.3c0 .1 0 .2.1.3 0 .1.1.1.2.1h.1.1c.1 0 .1.1.2.2 0 .1.1.2.1.3s-.1.2-.2.3c-.2.1-.3.1-.5.1-.4-.2-.7-.3-.8-.5z"/></g><path d="M59.7 76.4H40.1a5.34 5.34 0 0 1-5.3-5.3h0a5.34 5.34 0 0 1 5.3-5.3h19.8a5.34 5.34 0 0 1 5.3 5.3h0c-.2 3-2.5 5.3-5.5 5.3z" fill="#fff"/><g fill="#4c606b" class="G"><path d="M39.1 72.7l.8-3.5c0-.1.1-.1.3-.1h.3c.2 0 .3 0 .3.1l.8 3.4v.1c0 .1-.1.1-.2.1h-.3c-.2 0-.3 0-.3-.1l-.1-.6h-.8l-.1.6c0 .1-.1.1-.2.1h-.3c-.1 0-.2 0-.2-.1zm1.7-1.3l-.2-1.1c0-.1 0-.3-.1-.4h0c0 .1 0 .3-.1.4l-.2 1.1h.6zm1.6 1.3c-.1-.1-.2-.3-.3-.5s-.1-.5-.1-.8c0-.5.1-.8.2-1s.4-.4.7-.4c.2 0 .3.1.4.2V69c0-.1.1-.2.3-.2h.1c.2 0 .3.1.3.2v2.9.4.3.1c0 .1-.1.1-.2.1h-.4c-.1 0-.1 0-.1-.1s-.1-.1-.1-.2c-.1.1-.1.2-.2.3s-.2.1-.3.1-.2-.1-.3-.2zm.9-.7v-1.3c-.1 0-.1-.1-.2-.1s-.2.1-.2.2-.1.3-.1.6 0 .5.1.6c0 .1.1.2.2.2s.1-.1.2-.2zm1.6.7c-.1-.1-.2-.3-.3-.5s-.1-.5-.1-.8c0-.5.1-.8.2-1s.4-.4.7-.4c.2 0 .3.1.4.2V69c0-.1.1-.2.3-.2h.1c.2 0 .3.1.3.2v2.9.4.3.1c0 .1-.1.1-.2.1h-.4c-.1 0-.1 0-.1-.1s-.1-.1-.1-.2c-.1.1-.1.2-.2.3s-.2.1-.3.1a1.44 1.44 0 0 1-.3-.2zm1-.7v-1.3c-.1 0-.1-.1-.2-.1s-.2.1-.2.2-.1.3-.1.6 0 .5.1.6c0 .1.1.2.2.2l.2-.2z"/><use xlink:href="#B"/><path d="M49.6 72.5c-.2-.2-.3-.6-.3-1.1s.1-.8.3-1.1c.2-.2.5-.4.8-.4.4 0 .6.1.8.4.2.2.3.6.3 1.1s-.1.8-.3 1.1c-.2.2-.5.4-.8.4s-.6-.2-.8-.4zm1.1-.4c0-.1.1-.3.1-.6s0-.5-.1-.6c0-.1-.1-.2-.2-.2s-.2.1-.2.2-.1.3-.1.6 0 .5.1.6.1.2.2.2c0-.1.1-.1.2-.2zm2.3.3c-.2-.3-.3-.8-.3-1.5 0-.6.1-1.1.4-1.4.2-.3.6-.5 1.1-.5.2 0 .3 0 .5.1.1 0 .2.1.2.2s0 .3-.1.4c0 .1-.1.1-.2.1s-.2-.1-.3-.1a.55.55 0 0 0-.5.3c-.1.2-.2.5-.2.9s.1.7.2.9a.55.55 0 0 0 .5.3h.2.2c.1 0 .1 0 .2.1 0 .1.1.2.1.3v.1l-.1.1c-.1 0-.1 0-.2.1s-.2 0-.3 0c-.9.1-1.2-.1-1.4-.4z"/><path d="M55.2 72.6c-.1-.1-.2-.4-.2-.6 0-.7.4-1 1.2-1h0c0-.1 0-.2-.1-.3s-.1-.1-.2-.1h-.2c-.1 0-.1 0-.2.1h-.1s-.1 0-.1-.1-.1-.1-.1-.2v-.2c0-.1 0-.1.1-.2s.2-.1.3-.1h.4c.4 0 .6.1.8.2.2.2.2.4.2.7v1 .4.3.1c0 .1-.1.1-.2.1h-.4c-.1 0-.1 0-.1-.1 0 0 0-.1-.1-.2 0 .1-.1.1-.2.2s-.2.1-.4.1c-.1.2-.2.1-.4-.1zm1-.4l.1-.1v-.6c-.4 0-.5.2-.5.5 0 .1 0 .2.1.2s.1.1.2.1l.1-.1zm1.5.5V71v-.4-.3-.1c0-.1.1-.1.2-.1h.4c.1 0 .1 0 .1.1 0 0 0 .1.1.2v.1c0-.1.1-.2.2-.3s.2-.1.3-.1.2 0 .2.1c0 0 .1.1.1.2v.3c0 .1-.3.1-.3.1h-.1-.1c-.1 0-.1 0-.2.1s-.1.1-.1.2v1.7c0 .1-.1.2-.3.2H58c-.2-.2-.3-.2-.3-.3z"/><use xlink:href="#B" x="11.5"/></g><defs ><path id="B" d="M48.1 72.7c-.1-.1-.2-.3-.2-.6v-1.4h-.1c-.1 0-.1 0-.1-.1v-.2-.1-.2l.1-.1h.1l.1-.5c0-.1.1-.2.3-.2h.2c.2 0 .3.1.3.2v.5h.2c.1 0 .1 0 .1.1v.2.1.2l-.1.1h-.2v1.4.1h.1.1.1s.1.1.1.2v.2c0 .1-.1.2-.2.2s-.2.1-.4.1-.4-.1-.5-.2z"/></defs></svg>