<svg xmlns="http://www.w3.org/2000/svg" xmlns:xlink="http://www.w3.org/1999/xlink" viewBox="0 0 100 120" xmlns:v="https://vecta.io/nano"><path d="M97.5 120h-95c-1.4 0-2.5-1.3-2.5-3V3c0-1.7 1.2-3 2.5-3h95c1.4 0 2.5 1.3 2.5 3v114c0 1.7-1.1 3-2.5 3zM2.5 1.2C1.7 1.2 1 2 1 3v114c0 1 .7 1.8 1.5 1.8h95c.8 0 1.5-.8 1.5-1.8V3c0-1-.7-1.8-1.5-1.8h-95z" fill="#b8bcbf"/><g enable-background="new" fill="#6b7d87"><path d="M54.2 53.3c-.1.2-.3.3-.6.3v.2c0 .1 0 .1-.1.1h0c-.1 0-.1 0-.1-.1v-.2c-.2 0-.3 0-.5-.1-.1 0-.2-.1-.3-.2 0 0-.1-.1-.1-.2s0-.2.1-.3c0-.1.1-.1.2-.1h.1.1.1c.1.1.2.1.4.1v-.7h-.1c-.2-.1-.3-.2-.4-.3l-.3-.3c-.1-.1-.1-.3-.1-.5 0-.3.1-.5.2-.6.2-.2.4-.2.6-.3v-.2c0-.1 0-.1.1-.1h0c.1 0 .1 0 .1.1v.2c.1 0 .2 0 .3.1.1 0 .2.1.2.1.1 0 .1.1.1.2s0 .2-.1.3-.1.2-.1.2h-.1c-.1 0-.2-.1-.3-.1v.7h.1c.2.1.3.2.4.2l.3.3c.1.1.1.3.1.4-.1.4-.2.6-.3.8zm-.9-1.9v-.5c-.1 0-.1.1-.1.1v.1c-.1.1 0 .2.1.3zm.4 1.3c0-.1 0-.2-.1-.2v.5c.1-.1.1-.2.1-.3z"/><path d="M54.7 53.5v-.2-.1-.2l.1-.1h.5v-2.1l-.5.2c-.1 0-.1 0-.1-.1v-.3c0-.1 0-.1.1-.1l1-.2h.1s.1 0 .1.1V53h.4c.1 0 .1 0 .1.1v.2.1.2l-.1.1h-1.7c.1-.1 0-.2 0-.2zm2.4 0s-.1-.1-.1-.2v-.2-.1l.6-.3c.1-.2.3-.4.3-.6-.1.1-.2.1-.4.1-.1 0-.2 0-.3-.1l-.3-.3c-.1-.1-.1-.3-.1-.6 0-.2 0-.4.1-.6s.2-.3.4-.3c.1-.1.3-.1.5-.1a.9.9 0 0 1 .5.1c.1.1.3.2.4.4s.1.4.1.7c0 .5-.1 1-.3 1.3s-.4.5-.7.7c-.2.1-.4.2-.5.2s-.2 0-.2-.1zm.9-1.8v-.3c0-.2 0-.4-.1-.5 0-.1-.1-.1-.2-.1s-.2 0-.2.1c-.1.1-.1.2-.1.4 0 .1 0 .3.1.3.1.1.1.1.3.1h.2zm.9 1.7V53c0-.1.1-.2.3-.2h.2c.2 0 .3 0 .3.2v.4c0 .1-.1.2-.3.2h-.2c-.2 0-.3-.1-.3-.2zm1.2-.2c-.2-.3-.2-.7-.2-1.3a4.44 4.44 0 0 1 .2-1.3c.2-.3.4-.4.7-.4s.6.1.7.4c.2.3.2.7.2 1.3a4.44 4.44 0 0 1-.2 1.3c-.2.3-.4.4-.7.4s-.6-.1-.7-.4zm.8-.2c0-.1.1-.2.1-.3V52v-.7c0-.2 0-.3-.1-.3 0-.1-.1-.1-.1-.1-.1 0-.1 0-.1.1s-.1.2-.1.3v.7.7c0 .2 0 .3.1.3 0 .1.1.1.1.1.1 0 .1-.1.1-.1zm1.4.2c-.2-.3-.2-.7-.2-1.3a4.44 4.44 0 0 1 .2-1.3c.2-.3.4-.4.7-.4s.6.1.7.4c.2.3.2.7.2 1.3a4.44 4.44 0 0 1-.2 1.3c-.2.3-.4.4-.7.4s-.6-.1-.7-.4zm.8-.2c0-.1.1-.2.1-.3V52v-.7c0-.2 0-.3-.1-.3 0-.1-.1-.1-.1-.1-.1 0-.1 0-.1.1s-.1.2-.1.3v.7.7c0 .2 0 .3.1.3 0 .1.1.1.1.1l.1-.1z"/></g><g enable-background="new" fill="#4c606b"><path d="M52.7 45.8v-3.7c0-.1.1-.2.3-.2h.2c.2 0 .3.1.3.2v1.5h1.2v-1.5c0-.1.1-.2.3-.2h.2c.2 0 .3.1.3.2v3.7c0 .1-.1.2-.3.2H55c-.2 0-.3-.1-.3-.2v-1.6h-1.2v1.6c0 .1-.1.2-.3.2H53c-.2-.1-.3-.1-.3-.2zm3.5-.1c-.2-.1-.2-.4-.2-.6 0-.3.1-.6.3-.8s.6-.3 1.1-.3v-.2c0-.3-.1-.4-.4-.4h-.3c-.1 0-.2.1-.2.1h-.1l-.2-.2c-.1-.1-.1-.2-.1-.2 0-.1 0-.1.1-.2s.2-.1.3-.1.3-.1.4-.1c.4 0 .6.1.8.2.2.2.3.4.3.7V45v.6.2c0 .1-.1.1-.2.1h-.3c-.1 0-.1 0-.1-.1 0 0-.1-.1-.1-.2-.1.1-.2.2-.3.2 0 .1-.1.2-.2.2-.3 0-.5-.1-.6-.3zm1-.4c.1 0 .1-.1.2-.2v-.7c-.5 0-.7.2-.7.5 0 .1 0 .2.1.3s.1.1.2.1c0 .1.1.1.2 0z"/><use xlink:href="#B"/><path d="M60.4 45.8v-2.2h-.1c-.1 0-.1 0-.1-.1v-.2-.1-.2l.1-.1h.1v-.5c0-.3.1-.5.2-.6s.3-.2.5-.2c.1 0 .2 0 .3.1s.2.1.2.2v.2c0 .1-.1.1-.1.1h-.1-.1c-.1 0-.1 0-.1.1v.2.5h.3c.1 0 .1 0 .1.1v.2.1.2l-.1.1h-.3v2.2c0 .1-.1.2-.3.2h-.1c-.3-.2-.4-.2-.4-.3zm2.6.1c-.2-.1-.3-.1-.4-.2 0 0 0-.1-.1-.1v-.1c0-.1 0-.2.1-.3 0-.1.1-.1.2-.1h.1s.1 0 .1.1c.2.1.3.2.5.2.1 0 .3 0 .4-.1.1-.2.1-.3.1-.5s0-.3-.1-.4-.2-.2-.4-.3-.4-.2-.5-.3a1.38 1.38 0 0 1-.3-.4c-.1-.1-.1-.3-.1-.5s.1-.4.2-.6a.78.78 0 0 1 .4-.4c.2-.1.4-.1.6-.1.1 0 .3 0 .4.1.1 0 .2.1.3.1s.1.1.1.2 0 .2-.1.3c0 .1-.1.2-.1.2h-.1c-.1-.1-.3-.1-.4-.1-.2 0-.3 0-.4.1s-.1.2-.1.3 0 .2.1.3c0 .1.1.1.2.2.1 0 .2.1.3.2.1 0 .1 0 .1.1.3.1.5.3.6.5s.2.4.2.7c0 .2 0 .4-.1.6a.78.78 0 0 1-.4.4c-.4-.1-.6 0-.8 0s-.4-.1-.6-.1z"/><use xlink:href="#B" x="6.4"/><use xlink:href="#C"/><use xlink:href="#C" x="2.5"/><path d="M72.2 45.8l-.7-2.7V43c0-.1.1-.1.3-.1h.2c.2 0 .3 0 .3.1l.3 1.3c0 .2.1.5.1.8h0c0-.3.1-.6.1-.9L73 43c0-.1.1-.1.3-.1h.2c.2 0 .3 0 .3.1v.1l-.8 2.7c0 .1-.1.1-.3.1h-.3c-.1 0-.2 0-.2-.1z"/><use xlink:href="#C" x="7.3"/><path d="M78 45.8v-3.2h-.7c-.1 0-.1 0-.1-.1v-.2-.1-.2l.1-.1h2.1c.1 0 .1 0 .1.1v.2.1.2l-.1.1h-.7v3.2c0 .1-.1.2-.3.2h-.2c-.1-.1-.2-.1-.2-.2zm1.5-1.2v-.2h0v-.2l.1-.1h.9c.1 0 .1 0 .1.1v.2h0v.2l-.1.1h-.9s-.1 0-.1-.1zm1.9 1.3c-.2-.1-.3-.1-.4-.2 0 0 0-.1-.1-.1v-.1c0-.1 0-.2.1-.3 0-.1.1-.1.2-.1h.1s.1 0 .1.1c.2.1.3.2.5.2.1 0 .3 0 .4-.1s.2-.2.2-.4 0-.3-.1-.4a1.38 1.38 0 0 0-.4-.3c-.2-.1-.4-.2-.5-.3a1.38 1.38 0 0 1-.3-.4c-.2-.1-.2-.3-.2-.5s.1-.4.2-.6a.78.78 0 0 1 .4-.4c.2-.1.4-.1.6-.1.1 0 .3 0 .4.1s.2.1.3.1.1.1.1.2 0 .2-.1.3c0 .1-.1.2-.1.2h-.1c-.1-.1-.3-.1-.4-.1-.2 0-.3 0-.4.1s-.1.2-.1.3 0 .2.1.3c0 .1.1.1.2.2.1 0 .2.1.3.2.1 0 .1 0 .1.1.3.1.5.3.6.5s.2.4.2.7c0 .2 0 .4-.1.6a.78.78 0 0 1-.4.4c-.2.1-.4.2-.7.2-.3-.3-.5-.4-.7-.4zm2.2-.1v-4c0-.1.1-.2.3-.2h.2c.2 0 .3.1.3.2v1.5l.3-.3c.1-.1.3-.1.4-.1.2 0 .4.1.5.2s.2.3.2.6v2c0 .1-.1.2-.3.2h-.1-.2l-.1-.1v-1.9c0-.2-.1-.4-.3-.4-.1 0-.2 0-.2.1-.1.1-.1.1-.1.2v2c0 .1 0 .1-.1.1h-.2-.1c-.4 0-.5 0-.5-.1zm2.8-3.4V42c0-.1.1-.2.4-.2.2 0 .4.1.4.2v.4c0 .1-.1.2-.4.2s-.4 0-.4-.2zm0 3.4v-2.7c0-.1.1-.2.3-.2h.1c.2 0 .3.1.3.2v2.7c0 .1-.1.2-.3.2h-.1c-.2-.1-.3-.1-.3-.2zm1.4 0v-1.9-.6-.2c0-.1.1-.1.2-.1h.3c.1 0 .1 0 .1.1s0 .1.1.2v.1c.1-.1.1-.2.2-.3s.2-.1.3-.1.2 0 .2.1c0 0 .1.1.1.2v.3c0 .1-.1.2-.1.2h-.1-.2c-.1 0-.2 0-.2.1-.1.1-.1.1-.1.2V46c0 .1-.1.2-.3.2h-.1c-.3-.3-.4-.3-.4-.4z"/><path d="M89.9 45.8c-.1-.1-.2-.3-.2-.6v-1.6h-.1c-.1 0-.1 0-.1-.1v-.2-.1-.2l.1-.1h.1l.1-.6c0-.1.1-.2.3-.2h.1c.2 0 .2.1.2.2v.6h.3c.1 0 .1 0 .1.1v.2.1.2l-.1.1h-.3v1.6.2l.1.1h.1.1s.1 0 .1.1v.2c0 .1-.1.1-.2.2-.1 0-.2.1-.3.1-.1-.1-.3-.2-.4-.3z"/></g><path d="M70.1 64.5h-14a3.8 3.8 0 0 1-3.8-3.8h0a3.8 3.8 0 0 1 3.8-3.8h14.1a3.8 3.8 0 0 1 3.8 3.8h0c-.1 2.1-1.8 3.8-3.9 3.8z" fill="#4c606b"/><g enable-background="new" fill="#eaedef"><path d="M55.5 61.9s0-.1 0 0l.6-2.5c0-.1.1-.1.2-.1h.2c.1 0 .2 0 .2.1l.6 2.4v.1c0 .1-.1.1-.2.1H57c-.1 0-.2 0-.2-.1l-.1-.5h-.6l-.1.5c0 .1-.1.1-.2.1h-.2c-.1 0-.1-.1-.1-.1zm1.1-.9l-.2-.8v-.3h0v.3l-.2.8h.4zm1.2.9c-.1-.1-.2-.2-.2-.4s-.1-.3-.1-.6.1-.6.2-.7a.55.55 0 0 1 .5-.3c.1 0 .2 0 .3.1v-.8c0-.1.1-.1.2-.1h.1c.2 0 .2 0 .2.1v2.1.3.2.1s-.1.1-.2.1h-.3c-.1 0-.1 0-.1-.1 0 0 0-.1-.1-.2 0 .1-.1.1-.2.2-.1 0-.1.1-.2.1 0 0-.1 0-.1-.1zm.6-.5v-.9c-.1 0-.1-.1-.2-.1s-.1 0-.2.1c0 .1-.1.2-.1.4v.4c0 .1.1.1.1.1.3.1.4.1.4 0zm1.2.5c-.1-.1-.2-.2-.2-.4s-.1-.3-.1-.6.1-.6.2-.7a.55.55 0 0 1 .5-.3c.1 0 .2 0 .3.1v-.8c0-.1.1-.1.2-.1h.1c.2 0 .2 0 .2.1v2.1.3.2.1s-.1.1-.2.1h-.3c-.1 0-.1 0-.1-.1 0 0 0-.1-.1-.2 0 .1-.1.1-.2.2.1.1.1.1 0 .1s-.2 0-.3-.1zm.7-.5v-.9c-.1 0-.1-.1-.2-.1s-.1 0-.2.1c0 .1-.1.2-.1.4v.4c0 .1.1.1.1.1.2.1.3.1.4 0z"/><use xlink:href="#D"/><path d="M62.9 61.7c-.1-.2-.2-.4-.2-.8 0-.3.1-.6.2-.8s.3-.3.6-.3.4.1.6.3c.1.2.2.4.2.8 0 .3-.1.6-.2.8s-.3.3-.6.3c-.2 0-.4-.1-.6-.3zm.8-.3V61v-.4c0-.1-.1-.1-.2-.1s-.1 0-.2.1v.4.4c0 .1.1.1.2.1.1.1.1 0 .2-.1zm1.6.3c-.2-.2-.2-.6-.2-1 0-.5.1-.8.3-1s.4-.3.8-.3h.3c.1 0 .1.1.1.2s0 .2-.1.3c0 .1-.1.1-.1.1h-.2c-.2 0-.3.1-.3.2-.1.1-.1.4-.1.6 0 .3 0 .5.1.6s.2.2.4.2h.1.1c.1 0 .1 0 .1.1v.2.1l-.1.1h-.2-.2c-.4-.1-.6-.2-.8-.4z"/><path d="M66.9 61.8c-.1-.1-.1-.3-.1-.4 0-.5.3-.7.9-.7v-.1c0-.1 0-.1-.1-.2 0 0-.1-.1-.2-.1h-.1s-.1 0-.1.1h-.1s-.1 0-.1-.1l-.1-.1v-.1s0-.1.1-.1.1-.1.2-.1h.3c.3 0 .5.1.6.2s.2.3.2.5v.7.3.2.1s-.1.1-.2.1h-.3-.1s0-.1-.1-.1c0 .1-.1.1-.2.2-.1 0-.2.1-.3.1.1-.2-.1-.3-.2-.4zm.7-.2c0-.1.1-.1 0 0l.1-.5c-.3 0-.4.1-.4.3v.2l.1.1c.1-.1.2-.1.2-.1zm1.1.3v-1.2-.3-.2-.1s.1-.1.2-.1h.3s.1 0 .1.1v.1.1c0-.1.1-.2.1-.2 0-.1.1-.1.2-.1h.1v.2.2c0 .1 0 .1-.1.1h-.1-.1s-.1 0-.1.1l-.1.1v1.2c0 .1-.1.1-.2.1h-.1c-.1 0-.2-.1-.2-.1z"/><use xlink:href="#D" x="8.2"/></g><path d="M23.2 45.1c-7.2 3.3-7 3.8-12.3 9.7l5 5.7 1.8-1.5v15.7c8.9.2 10 .2 18.9 0V59l1.8 1.5 5-5.7c-5.3-5.8-5.2-6.3-12.3-9.7-2.6 1.6-5.4 1.6-7.9 0h0z" fill="#9aa7af"/><path d="M46.1 81H8a.47.47 0 0 1-.5-.5v-41A.47.47 0 0 1 8 39h38.1a.47.47 0 0 1 .5.5v41a.47.47 0 0 1-.5.5z" fill="none" stroke="#b8bcbf" stroke-width=".5" stroke-miterlimit="10"/><defs ><path id="B" d="M59 45.8c-.1-.1-.2-.3-.2-.6v-3.4c0-.1.1-.2.3-.2h.1c.2 0 .3.1.3.2v3.3.2l.1.1h.1.1s.1 0 .1.1v.2c0 .1 0 .1-.2.2-.1 0-.2.1-.3.1a.76.76 0 0 1-.4-.2z"/><path id="C" d="M66.9 45.6c-.2-.3-.3-.6-.3-1.1 0-1 .4-1.5 1.2-1.5.7 0 1 .5 1 1.5 0 0 0 .1-.1.2s-.1.1-.2.1h-1.2c0 .2.1.4.1.5.1.1.2.2.4.2h.3c.1 0 .1-.1.2-.1s.1-.1.1-.1.1 0 .2.1.1.2.1.2c0 .1 0 .1-.1.2s-.2.1-.3.1-.3.1-.4.1c-.5 0-.8-.2-1-.4zm1.2-1.4c0-.3 0-.5-.1-.6s-.2-.2-.3-.2-.2.1-.3.2-.1.3-.1.6h.8z"/><path id="D" d="M61.9 61.9c-.1-.1-.1-.2-.1-.4v-1h0-.1v-.1-.1-.1h.1 0v-.4c0-.1.1-.1.2-.1h.1c.1 0 .2 0 .2.1v.2h.1.1v.1.1.1h-.1-.1v1 .1h.1.1.1s.1 0 .1.1v.2c0 .1 0 .1-.1.1h-.3c-.2.2-.4.1-.4.1z"/></defs></svg>